<svg xmlns="http://www.w3.org/2000/svg" viewBox="0 0 680 520" width="680" height="520" role="img" aria-label="support illustration"><defs>
      <linearGradient id="bg" x1="0" y1="0" x2="1" y2="1">
        <stop offset="0" stop-color="#EEF2FB"/><stop offset="1" stop-color="#FDFAF6"/></linearGradient>
      <linearGradient id="navyg" x1="0" y1="0" x2="1" y2="1">
        <stop offset="0" stop-color="#152B6B"/><stop offset="1" stop-color="#0B1E4A"/></linearGradient>
      <linearGradient id="redg" x1="0" y1="0" x2="1" y2="1">
        <stop offset="0" stop-color="#E8383E"/><stop offset="1" stop-color="#C1272D"/></linearGradient>
      <filter id="sh" x="-20%" y="-20%" width="140%" height="140%">
        <feDropShadow dx="0" dy="10" stdDeviation="16" flood-color="#0B1E4A" flood-opacity="0.16"/></filter>
    </defs><rect width="680" height="520" rx="22" fill="url(#bg)"/><circle cx="626" cy="447" r="136" fill="#C1272D" opacity="0.07"/><circle cx="82" cy="83" r="109" fill="#0B1E4A" opacity="0.06"/><g fill="#0B1E4A" opacity="0.18"><circle cx="503.2" cy="62.4" r="2.4"/><circle cx="503.2" cy="75.4" r="2.4"/><circle cx="503.2" cy="88.4" r="2.4"/><circle cx="503.2" cy="101.4" r="2.4"/><circle cx="516.2" cy="62.4" r="2.4"/><circle cx="516.2" cy="75.4" r="2.4"/><circle cx="516.2" cy="88.4" r="2.4"/><circle cx="516.2" cy="101.4" r="2.4"/><circle cx="529.2" cy="62.4" r="2.4"/><circle cx="529.2" cy="75.4" r="2.4"/><circle cx="529.2" cy="88.4" r="2.4"/><circle cx="529.2" cy="101.4" r="2.4"/><circle cx="542.2" cy="62.4" r="2.4"/><circle cx="542.2" cy="75.4" r="2.4"/><circle cx="542.2" cy="88.4" r="2.4"/><circle cx="542.2" cy="101.4" r="2.4"/><circle cx="555.2" cy="62.4" r="2.4"/><circle cx="555.2" cy="75.4" r="2.4"/><circle cx="555.2" cy="88.4" r="2.4"/><circle cx="555.2" cy="101.4" r="2.4"/></g><g filter="url(#sh)"><rect x="136" y="120" width="354" height="239" rx="18" fill="#fff"/></g><circle cx="242" cy="191" r="48" fill="url(#navyg)"/><g transform="translate(214.6,163.9) scale(2.2923)" fill="none" stroke="#fff" stroke-width="0.92" stroke-linecap="round" stroke-linejoin="round"><path d="M3 14v-2a9 9 0 0118 0v2M21 14v3a3 3 0 01-3 3h-2M3 14a2 2 0 002 2h1v-5H5a2 2 0 00-2 2zM21 14a2 2 0 00-2-2h-1v5h1a2 2 0 002-2z"/></g><rect x="193" y="268" width="219" height="9" rx="4.5" fill="#0B1E4A" opacity="0.85"/><rect x="193" y="288" width="149" height="9" rx="4.5" fill="#0B1E4A" opacity="0.20"/><rect x="193" y="308" width="106" height="9" rx="4.5" fill="#C1272D" opacity="0.85"/><g filter="url(#sh)"><rect x="408" y="52" width="118" height="46" rx="23" fill="#fff"/></g><circle cx="434" cy="75" r="13" fill="#1B8A5A"/><g transform="translate(426.0,67.0) scale(0.6667)" fill="none" stroke="#fff" stroke-width="3.90" stroke-linecap="round" stroke-linejoin="round"><path d="M20 6L9 17l-5-5"/></g><text x="454" y="80" font-family="Inter,Arial,sans-serif" font-size="15" font-weight="700" fill="#0B1E4A">1 Hour</text><g filter="url(#sh)"><rect x="476" y="322" width="78" height="78" rx="18" fill="url(#redg)"/></g><g transform="translate(495.0,341.4) scale(1.6667)" fill="none" stroke="#fff" stroke-width="1.32" stroke-linecap="round" stroke-linejoin="round"><path d="M21 11.5a8.38 8.38 0 01-.9 3.8 8.5 8.5 0 01-7.6 4.7 8.38 8.38 0 01-3.8-.9L3 21l1.9-5.7a8.38 8.38 0 01-.9-3.8 8.5 8.5 0 014.7-7.6 8.38 8.38 0 013.8-.9h.5a8.48 8.48 0 018 8z"/></g><g filter="url(#sh)"><circle cx="109" cy="416" r="22" fill="#fff"/></g><g transform="translate(96.8,404.0) scale(1.0000)" fill="none" stroke="#0B1E4A" stroke-width="2.00" stroke-linecap="round" stroke-linejoin="round"><path d="M21 11.5a8.38 8.38 0 01-.9 3.8 8.5 8.5 0 01-7.6 4.7 8.38 8.38 0 01-3.8-.9L3 21l1.9-5.7a8.38 8.38 0 01-.9-3.8 8.5 8.5 0 014.7-7.6 8.38 8.38 0 013.8-.9h.5a8.48 8.48 0 018 8z"/></g><g filter="url(#sh)"><circle cx="161" cy="416" r="22" fill="#fff"/></g><g transform="translate(148.8,404.0) scale(1.0000)" fill="none" stroke="#0B1E4A" stroke-width="2.00" stroke-linecap="round" stroke-linejoin="round"><path d="M20.84 4.61a5.5 5.5 0 00-7.78 0L12 5.67l-1.06-1.06a5.5 5.5 0 10-7.78 7.78L12 21.23l8.84-8.84a5.5 5.5 0 000-7.78z"/></g></svg>