<svg xmlns="http://www.w3.org/2000/svg" viewBox="0 0 520 620" width="520" height="620" role="img" aria-label="healthcare illustration"><defs>
      <linearGradient id="bg" x1="0" y1="0" x2="1" y2="1">
        <stop offset="0" stop-color="#EEF2FB"/><stop offset="1" stop-color="#FDFAF6"/></linearGradient>
      <linearGradient id="navyg" x1="0" y1="0" x2="1" y2="1">
        <stop offset="0" stop-color="#152B6B"/><stop offset="1" stop-color="#0B1E4A"/></linearGradient>
      <linearGradient id="redg" x1="0" y1="0" x2="1" y2="1">
        <stop offset="0" stop-color="#E8383E"/><stop offset="1" stop-color="#C1272D"/></linearGradient>
      <filter id="sh" x="-20%" y="-20%" width="140%" height="140%">
        <feDropShadow dx="0" dy="10" stdDeviation="16" flood-color="#0B1E4A" flood-opacity="0.16"/></filter>
    </defs><rect width="520" height="620" rx="22" fill="url(#bg)"/><circle cx="478" cy="533" r="104" fill="#C1272D" opacity="0.07"/><circle cx="62" cy="99" r="83" fill="#0B1E4A" opacity="0.06"/><g fill="#0B1E4A" opacity="0.18"><circle cx="384.8" cy="74.39999999999999" r="2.4"/><circle cx="384.8" cy="87.39999999999999" r="2.4"/><circle cx="384.8" cy="100.39999999999999" r="2.4"/><circle cx="384.8" cy="113.39999999999999" r="2.4"/><circle cx="397.8" cy="74.39999999999999" r="2.4"/><circle cx="397.8" cy="87.39999999999999" r="2.4"/><circle cx="397.8" cy="100.39999999999999" r="2.4"/><circle cx="397.8" cy="113.39999999999999" r="2.4"/><circle cx="410.8" cy="74.39999999999999" r="2.4"/><circle cx="410.8" cy="87.39999999999999" r="2.4"/><circle cx="410.8" cy="100.39999999999999" r="2.4"/><circle cx="410.8" cy="113.39999999999999" r="2.4"/><circle cx="423.8" cy="74.39999999999999" r="2.4"/><circle cx="423.8" cy="87.39999999999999" r="2.4"/><circle cx="423.8" cy="100.39999999999999" r="2.4"/><circle cx="423.8" cy="113.39999999999999" r="2.4"/><circle cx="436.8" cy="74.39999999999999" r="2.4"/><circle cx="436.8" cy="87.39999999999999" r="2.4"/><circle cx="436.8" cy="100.39999999999999" r="2.4"/><circle cx="436.8" cy="113.39999999999999" r="2.4"/></g><g filter="url(#sh)"><rect x="104" y="143" width="270" height="285" rx="18" fill="#fff"/></g><circle cx="185" cy="228" r="54" fill="url(#navyg)"/><g transform="translate(154.0,197.1) scale(2.5913)" fill="none" stroke="#fff" stroke-width="0.81" stroke-linecap="round" stroke-linejoin="round"><path d="M20.84 4.61a5.5 5.5 0 00-7.78 0L12 5.67l-1.06-1.06a5.5 5.5 0 10-7.78 7.78L12 21.23l8.84-8.84a5.5 5.5 0 000-7.78z"/></g><rect x="147" y="319" width="168" height="9" rx="4.5" fill="#0B1E4A" opacity="0.85"/><rect x="147" y="339" width="114" height="9" rx="4.5" fill="#0B1E4A" opacity="0.20"/><rect x="147" y="359" width="81" height="9" rx="4.5" fill="#C1272D" opacity="0.85"/><g filter="url(#sh)"><rect x="312" y="62" width="118" height="46" rx="23" fill="#fff"/></g><circle cx="338" cy="85" r="13" fill="#1B8A5A"/><g transform="translate(330.0,77.0) scale(0.6667)" fill="none" stroke="#fff" stroke-width="3.90" stroke-linecap="round" stroke-linejoin="round"><path d="M20 6L9 17l-5-5"/></g><text x="358" y="90" font-family="Inter,Arial,sans-serif" font-size="15" font-weight="700" fill="#0B1E4A">Trusted</text><g filter="url(#sh)"><rect x="364" y="384" width="78" height="78" rx="18" fill="url(#redg)"/></g><g transform="translate(383.0,403.4) scale(1.6667)" fill="none" stroke="#fff" stroke-width="1.32" stroke-linecap="round" stroke-linejoin="round"><path d="M12 22s8-4 8-10V5l-8-3-8 3v7c0 6 8 10 8 10z"/><path d="M9 12l2 2 4-4"/></g><g filter="url(#sh)"><circle cx="83" cy="496" r="22" fill="#fff"/></g><g transform="translate(71.2,484.0) scale(1.0000)" fill="none" stroke="#0B1E4A" stroke-width="2.00" stroke-linecap="round" stroke-linejoin="round"><path d="M9 3h6v6h6v6h-6v6H9v-6H3V9h6z"/></g><g filter="url(#sh)"><circle cx="135" cy="496" r="22" fill="#fff"/></g><g transform="translate(123.2,484.0) scale(1.0000)" fill="none" stroke="#0B1E4A" stroke-width="2.00" stroke-linecap="round" stroke-linejoin="round"><path d="M17 21v-2a4 4 0 00-4-4H5a4 4 0 00-4 4v2"/><circle cx="9" cy="7" r="4"/><path d="M23 21v-2a4 4 0 00-3-3.87M16 3.13a4 4 0 010 7.75"/></g></svg>